<svg xmlns="http://www.w3.org/2000/svg" xmlns:xlink="http://www.w3.org/1999/xlink" width="320" height="91" viewBox="0 0 320 91">
  <defs>
    <clipPath id="clip-doctores_logo_w">
      <rect width="320" height="91"/>
    </clipPath>
  </defs>
  <g id="doctores_logo_w" clip-path="url(#clip-doctores_logo_w)">
    <path id="Trazado_1721" data-name="Trazado 1721" d="M3.9-14H.32v.815H1.676v3.558h.871v-3.558H3.9Zm5.422,0H8.047L6.913-11.048,5.777-14H4.5v4.373H5.37V-12.9l1.081,2.855h.921l1.081-2.88v3.3h.871Z" transform="translate(309.675 95.051)" fill="#fff"/>
    <path id="Trazado_1722" data-name="Trazado 1722" d="M18.587-68.756c-7.4,0-13.22,5.823-13.22,13.91s5.823,13.91,13.22,13.91A10.03,10.03,0,0,0,26.895-44.8v3.174h5.768V-76.36H26.895v11.5A10.048,10.048,0,0,0,18.587-68.756Zm.69,5.437c4.775,0,7.976,3.643,7.976,8.473s-3.2,8.473-7.976,8.473c-4.968,0-7.976-3.836-7.976-8.473S14.31-63.319,19.277-63.319Zm30.466-5.437c-8.169,0-14.213,5.989-14.213,13.91s6.044,13.91,14.213,13.91,14.241-5.989,14.241-13.91S57.913-68.756,49.744-68.756Zm0,5.437a8.121,8.121,0,0,1,8.307,8.473,8.121,8.121,0,0,1-8.307,8.473,8.1,8.1,0,0,1-8.28-8.473A8.1,8.1,0,0,1,49.744-63.319Zm31.068-5.437c-8.418,0-13.91,5.989-13.91,13.91s5.492,13.91,13.91,13.91a12.727,12.727,0,0,0,9.88-4.223l-3.56-3.974a9.622,9.622,0,0,1-6.486,2.76c-4.443,0-7.81-3.477-7.81-8.473s3.367-8.473,7.81-8.473a8.864,8.864,0,0,1,6.348,2.732l3.7-3.947A12.646,12.646,0,0,0,80.812-68.756Zm33.775.69H104.458v-8h-5.8v8H93.391v5.244h5.271V-51.2c0,7.038,3.505,10.267,9.494,10.267a14.281,14.281,0,0,0,8.114-2.622l-2.291-4.609a10.592,10.592,0,0,1-5.327,1.794c-2.318,0-4.2-1.38-4.2-4.94V-62.822h10.129Zm16.532-.69c-8.169,0-14.213,5.989-14.213,13.91s6.044,13.91,14.213,13.91,14.241-5.989,14.241-13.91S139.288-68.756,131.119-68.756Zm0,5.437a8.121,8.121,0,0,1,8.307,8.473,8.121,8.121,0,0,1-8.307,8.473,8.1,8.1,0,0,1-8.28-8.473A8.1,8.1,0,0,1,131.119-63.319ZM162.1-68.756a8.832,8.832,0,0,0-7.672,3.671v-2.981h-5.713v26.44h5.768V-56.171c0-4.5,2.622-7.093,6.293-7.093a10.3,10.3,0,0,1,4.388.966l1.38-5.713A11.538,11.538,0,0,0,162.1-68.756Zm17.663,0c-7.783,0-13.165,5.63-13.165,13.91,0,8.39,5.6,13.91,13.523,13.91A15.927,15.927,0,0,0,191-44.662l-2.87-4.112a12.635,12.635,0,0,1-7.645,2.787,7.469,7.469,0,0,1-7.866-6.734h19.54c.055-.662.11-1.408.11-2.153C192.24-63.126,187.161-68.756,179.765-68.756Zm-.11,5.133c3.671,0,6.072,2.4,6.707,6.513H172.644C173.251-60.973,175.542-63.623,179.654-63.623Zm37.424-2.318a20.088,20.088,0,0,0-10.708-2.787c-6.734,0-10.929,3.229-10.929,8.473,0,4.25,3.119,6.955,8.97,7.755l2.76.359c3.146.442,4.581,1.435,4.581,2.925,0,1.987-2.07,3.229-6.017,3.229a13.288,13.288,0,0,1-8.721-2.7l-2.677,4.333a19.454,19.454,0,0,0,11.343,3.395c7.617,0,12.033-3.56,12.033-8.638,0-4.526-3.422-6.983-9.19-7.81l-2.732-.414c-2.429-.359-4.361-.883-4.361-2.732,0-1.877,1.849-3.146,5-3.146a17.051,17.051,0,0,1,8.169,2.263Z" transform="translate(90.745 126.562)" fill="#fff"/>
    <path id="Trazado_1723" data-name="Trazado 1723" d="M21.315-207.689,15.2-188.6l31.2,10.108-19.342,26.7,16.222,11.73,19.342-26.58,19.342,26.58,16.222-11.73-19.467-26.7L110.038-188.6l-6.115-19.092L72.6-197.456V-230.4H52.636v32.944Z" transform="translate(-14.579 230.848)" fill="#fff" stroke="rgba(0,0,0,0)" stroke-width="1"/>
  </g>
</svg>
