<?xml version="1.0" encoding="utf-8"?>
<!-- Generator: Adobe Illustrator 19.2.0, SVG Export Plug-In . SVG Version: 6.00 Build 0)  -->
<svg version="1.1" id="Layer_1" xmlns="http://www.w3.org/2000/svg" xmlns:xlink="http://www.w3.org/1999/xlink" x="0px" y="0px"
	 width="228px" height="76px" viewBox="0 0 228 76" style="enable-background:new 0 0 228 76;" xml:space="preserve">
<style type="text/css">
	.st0{fill:#4DDEC6;}
	.st1{fill:#FFFFFF;fill-opacity:0.5;}
	.st2{fill:#FEFEFE;}
	.st3{fill:#FFFFFF;}
</style>
<title>doctores_logo4</title>
<path class="st0" d="M11.3,16.2c0,0-7.1,1.5-9.5,7.9C0.6,27.1,0,32.6,0,38s0.6,10.9,1.7,13.9c2.5,6.4,9.5,7.9,9.5,7.9
	c3.8,0.9,7.7,1.3,11.6,1.2c3.9,0.1,7.8-0.3,11.6-1.2c0,0,7.1-1.5,9.5-7.9c1.2-3,1.7-8.5,1.8-13.9s-0.6-10.9-1.8-13.9
	c-2.5-6.4-9.5-7.9-9.5-7.9c-3.8-0.9-7.7-1.3-11.6-1.3C19,14.9,15.1,15.3,11.3,16.2z"/>
<path class="st1" d="M17.1,46V32.4h13.5c1.5,0,2.9,0.6,4,1.6c1.1,1,1.6,2.5,1.6,3.9c0,1.5-0.6,2.9-1.6,4c-1,1.1-2.5,1.7-4,1.6h-2.4
	V46c0,1.5-0.6,2.9-1.6,4c-1,1.1-2.5,1.7-4,1.6c-1.5,0-2.9-0.6-4-1.6C17.6,48.9,17.1,47.5,17.1,46L17.1,46z"/>
<path class="st2" d="M28.2,30v13.6H14.7c-1.5,0-2.9-0.6-3.9-1.6c-1.1-1-1.6-2.5-1.6-3.9c0-1.5,0.6-2.9,1.6-4c1-1.1,2.5-1.7,3.9-1.6
	h2.4v-2.3c0-1.5,0.6-2.9,1.6-4c1-1.1,2.5-1.7,4-1.6c1.5,0,2.9,0.6,4,1.6C27.7,27.1,28.3,28.5,28.2,30L28.2,30z"/>
<path class="st3" d="M56.7,49.1c0,1.3,1,2.4,2.3,2.4c0,0,0.1,0,0.1,0h7.7c8.5,0,14.4-5.9,14.4-13.5v-0.1c0-7.6-5.9-13.5-14.4-13.5
	h-7.7c-1.3,0-2.4,1-2.4,2.3c0,0,0,0.1,0,0.1V49.1L56.7,49.1z M61.5,47.1V28.7h5.3c5.7,0,9.4,3.9,9.4,9.2V38c0,5.3-3.7,9.1-9.4,9.1
	C66.8,47.1,61.5,47.1,61.5,47.1z M96.2,51.9c5.9,0.2,10.8-4.5,11-10.4c0-0.1,0-0.2,0-0.3v-0.1c-0.2-6-5.2-10.7-11.3-10.5
	c-5.8,0.2-10.4,4.8-10.5,10.6v0.1c0,5.8,4.7,10.6,10.6,10.6C96,51.9,96.1,51.9,96.2,51.9L96.2,51.9L96.2,51.9z M96.2,47.8
	c-3.5,0-6.3-2.9-6.3-6.3c0-0.1,0-0.1,0-0.2v-0.1c0-3.6,2.4-6.5,6.2-6.5c3.5,0,6.3,2.9,6.3,6.4c0,0.1,0,0.1,0,0.2v0.1
	c0.2,3.4-2.4,6.3-5.8,6.5C96.5,47.8,96.4,47.8,96.2,47.8L96.2,47.8L96.2,47.8z M121.3,51.9c2.8,0.1,5.5-0.9,7.4-2.9
	c0.4-0.4,0.7-0.9,0.7-1.5c0-1.1-0.9-2-2-2c-0.5,0-1,0.2-1.3,0.5c-1.2,1.2-2.9,1.8-4.6,1.8c-3.6,0-6.1-2.9-6.1-6.5v-0.1
	c0-3.6,2.5-6.5,5.9-6.5c1.6,0,3.2,0.6,4.4,1.7c0.4,0.3,0.9,0.5,1.4,0.5c1.2,0,2.1-0.9,2.2-2.1c0,0,0,0,0,0c0-0.6-0.3-1.2-0.7-1.6
	c-2-1.7-4.5-2.6-7.2-2.5c-5.8-0.1-10.6,4.6-10.6,10.5c0,0.1,0,0.1,0,0.2v0.1c-0.1,5.8,4.5,10.5,10.3,10.6
	C121.1,51.9,121.2,51.9,121.3,51.9L121.3,51.9L121.3,51.9z M140.8,51.8c1.1,0,2.2-0.2,3.2-0.5c0.7-0.3,1.2-1,1.2-1.8
	c0-1.1-0.9-1.9-2-1.9c-0.4,0.1-0.8,0.1-1.2,0.1c-1.2,0.2-2.3-0.7-2.5-1.9c0-0.2,0-0.4,0-0.7v-10h3.7c1.1,0,2-0.9,2-2s-0.9-2-2-2
	h-3.7v-3.5c0-1.3-1.1-2.3-2.3-2.3c-1.3,0-2.3,1-2.3,2.3v18.3C134.9,50.3,137.4,51.8,140.8,51.8L140.8,51.8L140.8,51.8z M159,51.9
	c5.9,0.2,10.8-4.5,11-10.4c0-0.1,0-0.2,0-0.3v-0.1c-0.2-6-5.2-10.7-11.3-10.5c-5.8,0.2-10.4,4.8-10.5,10.6v0.1
	c0,5.8,4.7,10.6,10.6,10.6C158.9,51.9,158.9,51.9,159,51.9L159,51.9z M159.1,47.8c-3.5,0-6.3-2.9-6.2-6.4c0-0.1,0-0.1,0-0.2v-0.1
	c0-3.6,2.4-6.5,6.1-6.5c3.5,0,6.3,2.9,6.3,6.4c0,0.1,0,0.1,0,0.2v0.1c0.2,3.4-2.4,6.3-5.8,6.5C159.3,47.8,159.2,47.8,159.1,47.8
	C159.1,47.8,159.1,47.8,159.1,47.8z M174.7,49.3c0,1.3,1,2.3,2.3,2.3c0,0,0,0,0,0c1.3,0,2.3-1,2.4-2.3c0,0,0,0,0,0v-6
	c0-4.8,2.3-7.4,5.6-8c1.1-0.2,1.9-1.1,1.9-2.2c0.1-1.2-0.8-2.2-2-2.3c-0.1,0-0.2,0-0.3,0c-2.1,0-4.1,1.9-5.1,4.5v-2.1
	c0-1.3-1-2.4-2.3-2.4c0,0,0,0,0,0c-1.3,0-2.3,1-2.3,2.3c0,0,0,0,0,0.1V49.3L174.7,49.3L174.7,49.3z M193.5,39.8
	c0.4-3.2,2.4-5.4,5.3-5.4c3.1,0,4.9,2.4,5.2,5.4H193.5L193.5,39.8z M206.7,49.2c0.4-0.4,0.6-0.9,0.6-1.4c0-1-0.8-1.9-1.8-1.9
	c0,0-0.1,0-0.1,0c-0.4,0-0.9,0.1-1.2,0.4c-1.3,1.2-3.1,1.8-4.8,1.8c-3,0.1-5.6-2.2-5.9-5.2h12.8c1.2,0,2.2-1,2.2-2.2c0,0,0,0,0-0.1
	c0-4.7-3.2-10.1-9.7-10.1c-5.8,0-10,4.8-10,10.6v0.1c-0.2,5.6,4.2,10.4,9.8,10.6c0.2,0,0.5,0,0.7,0C202.1,52,204.7,51.1,206.7,49.2
	L206.7,49.2L206.7,49.2z M220.4,51.9c4.3,0,7.6-2.1,7.6-6.4v-0.1c0-3.7-3.4-5-6.4-6c-2.4-0.8-4.6-1.4-4.6-2.9v0c0-1.2,1-2,2.9-2
	c1.7,0.1,3.3,0.6,4.8,1.4c0.3,0.2,0.6,0.2,0.9,0.2c1,0,1.9-0.8,1.9-1.8c0,0,0-0.1,0-0.1c0-0.8-0.4-1.4-1.1-1.8
	c-2-1.1-4.2-1.6-6.4-1.7c-4.1,0-7.3,2.4-7.3,6.2V37c0,3.9,3.4,5.2,6.4,6c2.4,0.7,4.6,1.3,4.6,2.9v0.1c0,1.3-1.2,2.2-3.2,2.2
	c-2.1-0.1-4.2-0.8-5.9-2c-0.3-0.2-0.6-0.3-1-0.3c-1,0-1.9,0.8-1.9,1.8c0,0,0,0,0,0.1c0,0.7,0.3,1.3,0.9,1.6
	C214.9,51,217.6,51.8,220.4,51.9L220.4,51.9L220.4,51.9z"/>
</svg>
