<?xml version="1.0" encoding="UTF-8"?>
<!DOCTYPE svg PUBLIC "-//W3C//DTD SVG 1.1//EN" "http://www.w3.org/Graphics/SVG/1.1/DTD/svg11.dtd">
<!-- Creator: CorelDRAW 2017 -->
<svg xmlns="http://www.w3.org/2000/svg" xml:space="preserve" width="1.02723in" height="1.03067in" version="1.1" style="shape-rendering:geometricPrecision; text-rendering:geometricPrecision; image-rendering:optimizeQuality; fill-rule:evenodd; clip-rule:evenodd"
viewBox="0 0 206.57 207.26"
 xmlns:xlink="http://www.w3.org/1999/xlink">
 <defs>
  <style type="text/css">
   <![CDATA[
    .str0 {stroke:#FEFEFE;stroke-width:0.6;stroke-miterlimit:2.61313;stroke-opacity:0.670588}
    .fil2 {fill:#FEFEFE}
    .fil0 {fill:#4DDEC6}
    .fil1 {fill:white;fill-opacity:0.670588}
   ]]>
  </style>
 </defs>
 <g id="Layer_x0020_1">
  <metadata id="CorelCorpID_0Corel-Layer"/>
  <path class="fil0" d="M50.94 5.61c0,0 -31.81,6.66 -42.99,35.47 -5.37,13.54 -7.74,38.26 -7.95,62.55 0.21,24.29 2.58,49.01 7.74,62.55 11.18,28.8 42.99,35.47 42.99,35.47 18.06,4.3 36.33,5.8 52.45,5.59 16.12,0.21 34.61,-1.08 52.45,-5.59 0,0 31.81,-6.66 42.99,-35.47 5.16,-13.54 7.74,-38.26 7.95,-62.55 -0.22,-24.29 -2.58,-49.01 -7.95,-62.55 -11.18,-28.8 -42.99,-35.47 -42.99,-35.47 -18.06,-4.3 -36.33,-5.8 -52.45,-5.59 -15.91,-0.21 -34.39,1.08 -52.23,5.59z"/>
  <path class="fil1 str0" d="M77.06 139.52l0 -60.98 60.98 0c6.61,0 12.96,2.54 17.79,7.37 4.83,4.83 7.49,11.05 7.37,17.78 0,6.61 -2.54,12.96 -7.37,17.78 -4.83,4.83 -11.05,7.5 -17.79,7.37l-10.8 -0.13 0 10.67c0,6.61 -2.54,12.96 -7.37,17.78 -4.83,4.83 -11.05,7.5 -17.78,7.37 -6.61,0 -12.96,-2.54 -17.79,-7.37 -4.83,-4.83 -7.24,-10.8 -7.24,-17.66z"/>
  <path class="fil2" d="M127.25 67.74l0 60.98 -60.98 0c-6.61,0 -12.96,-2.54 -17.79,-7.37 -4.83,-4.83 -7.49,-11.05 -7.37,-17.78 0,-6.61 2.54,-12.96 7.37,-17.79 4.83,-4.83 11.05,-7.49 17.79,-7.37l10.8 0.13 0 -10.67c0,-6.61 2.54,-12.96 7.37,-17.79 4.83,-4.83 11.05,-7.49 17.78,-7.37 6.61,0 12.96,2.54 17.79,7.37 4.83,4.83 7.24,10.8 7.24,17.66z"/>
 </g>
</svg>
